<svg xmlns="http://www.w3.org/2000/svg" width="1024" height="1024" viewBox="0 0 1024 1024">
  <path fill="#16161A" fill-rule="evenodd" d="M353.018132,293.532961 L353.019751,293.535534 C366.470285,283.975559 390.620101,287.143704 401.709231,300.374477 L463.860333,374.530577 C474.126212,386.778663 470.848587,408.51633 460.432599,421.562513 L418.315826,460.540832 C390.720088,486.077304 439.277081,537.546417 470.556385,574.866722 C501.908433,612.275229 549.182487,668.313586 578.128127,651.787053 L631.574853,626.071038 C648.581028,620.576905 672.730221,623.743395 683.493949,636.586954 L745.889375,711.033107 C756.236582,723.380748 752.96351,745.122945 739.689763,753.684035 C698.394761,780.12872 660.793977,799.252985 626.652733,799.99857 C554.17358,800.408419 467.815789,712.677045 394.940887,625.7251 C321.678326,538.313274 263.731967,445.55348 272.970318,377.985693 C283.137073,348.829777 313.691915,321.734232 353.018132,293.532961 Z"/>
</svg>
