<svg xmlns="http://www.w3.org/2000/svg" width="1024" height="1024" viewBox="0 0 1024 1024">
  <path fill="#D8D8D8" fill-rule="evenodd" d="M196 288L828 288C830.209139 288 832 289.790861 832 292L832 348C832 350.209139 830.209139 352 828 352L196 352C193.790861 352 192 350.209139 192 348L192 292C192 289.790861 193.790861 288 196 288zM196 480L828 480C830.209139 480 832 481.790861 832 484L832 540C832 542.209139 830.209139 544 828 544L196 544C193.790861 544 192 542.209139 192 540L192 484C192 481.790861 193.790861 480 196 480zM196 672L828 672C830.209139 672 832 673.790861 832 676L832 732C832 734.209139 830.209139 736 828 736L196 736C193.790861 736 192 734.209139 192 732L192 676C192 673.790861 193.790861 672 196 672z"/>
</svg>
