<svg xmlns="http://www.w3.org/2000/svg" width="96" height="80" viewBox="0 0 96 80">
  <path fill="#FFFFFF" fill-rule="evenodd" d="M50.3703704,13.7883024 C50.3703704,13.0491614 50.6405471,12.8036871 51.3580247,12.8036871 L56.298065,12.8036871 C57.2857194,12.8036871 57.2857194,13.2959948 57.2857194,13.7883024 L57.2857194,44.3113794 C57.2857194,45.2959948 58.7672008,45.7562332 59.261028,44.3113794 L65.1869539,13.7883024 C65.2665939,13.3699486 65.7563188,12.8036871 66.1746082,12.8036871 L78.0264601,12.8036871 C78.7811461,12.8036871 79.0141144,12.8036871 79.0141144,13.7883024 L68.1499169,62.0344563 C68.0645371,62.4454187 67.5748122,63.0190402 67.1622626,63.0190402 L44.485379,63.0190402 C43.7229492,63.0190402 43.4585589,62.5259851 43.4585589,62.0344563 L43.4585589,55.1421486 C43.4585589,54.651359 44.0032341,54.6498409 44.485379,54.6498409 L54.3484505,54.6498409 C54.8305955,54.6498409 55.3104107,54.1575332 54.3484505,53.1729178 L45.4338675,40.3692308 C44.9382716,39.8769231 44.485379,38.4036871 45.4338675,37.4190717 L54.3484505,27.5692308 C55.308642,26.5846154 55.308642,25.6036871 54.3484505,25.6036871 C53.3882591,25.6036871 45.8885288,25.6036871 45.4338675,25.6036871 C44.4444444,25.6036871 44.3990671,24.5084947 44.9400403,24.1230769 C48.3950617,21.6615385 50.0140684,18.9271435 50.3703704,13.7883024 Z M13.8289292,57.1113794 C13.8289292,56.6205897 13.6772292,56.1230769 14.8165836,56.1230769 C16.130285,56.1230769 21.3441004,56.116416 23.7010143,56.126764 C30.6128258,56.126764 34.0740741,54.6498409 36.5449786,53.1729178 C37.5326329,52.5474371 37.5326329,52.8559676 37.5326329,53.1729178 L35.5573243,62.0344563 C35.4058968,62.6831943 35.1239596,63.0190402 34.56967,63.0190717 L14.8165836,63.0190402 C14.306457,63.0190402 13.8289292,62.5259851 13.8289292,62.0344563 L13.8289292,57.1113794 Z M23.7054724,0.00368706077 C47.0593678,-0.310447876 46.3216236,19.5396945 34.6178169,24.6190717 C34.2590782,24.8038569 34.2590782,25.4189018 34.6178169,25.6036871 C38.5463116,27.0861289 41.5708096,31.8334954 41.4832502,36.4344563 C41.3549265,43.17745 35.6168223,50.3095788 20.739138,50.2190717 L0.989423065,50.2190717 C-0.0867933129,50.2190717 0.00176874381,49.2810643 0.00176874381,49.2344563 L7.90300331,0.988302445 C7.97259864,0.558861509 8.46304099,0.00368706077 8.89065763,0.00368706077 L23.7054724,0.00368706077 Z M17.7795465,17.726764 L24.6931268,17.726764 C32.0336399,17.7932867 31.8392035,10.838152 24.6931268,10.8344563 C20.7425095,10.8344563 18.7672008,10.8344563 18.7672008,10.8344563 C18.2733737,10.8344563 18.2733737,11.326764 18.2733737,11.326764 L17.2857194,17.2344563 C17.2577377,17.4591552 17.2577377,17.726764 17.7795465,17.726764 Z M13.8289292,38.4036871 C13.7268955,39.3883024 14.8165836,39.3883024 14.8165836,39.3883024 C14.1581473,39.3883024 16.7918922,39.3883024 22.7178181,39.3883024 C23.8650648,39.491043 27.6560897,38.3626485 27.6560897,34.9575332 C27.6560897,31.552418 24.1651155,30.957723 22.0672111,31.0190717 L15.8042379,31.0190717 C15.0867603,31.0190717 14.8553273,31.3007242 14.8165836,31.5113794 L13.8289292,38.4036871 Z" transform="translate(8 8)"/>
</svg>
